<svg width="121" height="119" viewBox="0 0 121 119" fill="none" xmlns="http://www.w3.org/2000/svg">
<g filter="url(#filter0_n_4_58)">
<path d="M72.3076 38.4524C73.2459 40.1447 75.1612 41.0479 77.0638 40.6951L117.191 33.2537L89.0728 62.0757C87.6852 63.4981 87.3943 65.662 88.3577 67.3999L107.61 102.123L70.7276 85.1622L70.4005 85.0262C68.8565 84.4581 67.1213 84.7799 65.8837 85.8638L65.6271 86.1081L37.2772 115.166L42.8004 75.8481C43.0767 73.8804 42.0292 71.9646 40.224 71.1344L3.64084 54.3108L43.7682 46.8695C45.6708 46.5167 47.1349 44.9868 47.4041 43.0706L52.9555 3.5512L72.3076 38.4524Z" stroke="#BA33D5" stroke-opacity="0.3" stroke-width="5"/>
</g>
<defs>
<filter id="filter0_n_4_58" x="0" y="0" width="120.657" height="118.614" filterUnits="userSpaceOnUse" color-interpolation-filters="sRGB">
<feFlood flood-opacity="0" result="BackgroundImageFix"/>
<feBlend mode="normal" in="SourceGraphic" in2="BackgroundImageFix" result="shape"/>
<feTurbulence type="fractalNoise" baseFrequency="0.5 0.5" stitchTiles="stitch" numOctaves="3" result="noise" seed="3217" />
<feColorMatrix in="noise" type="luminanceToAlpha" result="alphaNoise" />
<feComponentTransfer in="alphaNoise" result="coloredNoise1">
<feFuncA type="discrete" tableValues="1 1 1 1 1 1 1 1 1 1 1 1 1 1 1 1 1 1 1 1 1 1 1 1 1 1 1 1 1 1 1 1 1 1 1 1 1 1 1 1 1 1 1 1 1 1 1 1 1 1 1 0 0 0 0 0 0 0 0 0 0 0 0 0 0 0 0 0 0 0 0 0 0 0 0 0 0 0 0 0 0 0 0 0 0 0 0 0 0 0 0 0 0 0 0 0 0 0 0 0 "/>
</feComponentTransfer>
<feComposite operator="in" in2="shape" in="coloredNoise1" result="noise1Clipped" />
<feFlood flood-color="rgba(0, 0, 0, 0.25)" result="color1Flood" />
<feComposite operator="in" in2="noise1Clipped" in="color1Flood" result="color1" />
<feMerge result="effect1_noise_4_58">
<feMergeNode in="shape" />
<feMergeNode in="color1" />
</feMerge>
</filter>
</defs>
</svg>
