<svg width="49" height="51" viewBox="0 0 49 51" fill="none" xmlns="http://www.w3.org/2000/svg">
<path d="M1.68532 20.0853C1.32667 19.7894 1.53115 19.2069 1.99603 19.1998L16.5828 18.989C18.0503 18.9678 19.349 18.0334 19.835 16.6486L25.0328 1.83482C25.085 1.68612 25.1589 1.61444 25.225 1.57315C25.302 1.52502 25.4093 1.49506 25.5307 1.50135C25.6519 1.50769 25.7552 1.54843 25.8268 1.60422C25.8882 1.65211 25.9548 1.73117 25.9913 1.88446L29.3705 16.0658C29.7505 17.6603 31.1864 18.7783 32.8254 18.7548L46.6924 18.5544C47.1718 18.5475 47.385 19.1534 47.007 19.4482L34.5877 29.1263C33.5064 29.9689 33.0164 31.3655 33.3341 32.6989L36.984 48.0143C37.0951 48.4807 36.5496 48.8214 36.1796 48.5165L25.4779 39.6956C24.2129 38.6531 22.3936 38.6279 21.1005 39.6355L9.60108 48.5973C9.47684 48.6941 9.37571 48.7134 9.29783 48.7124C9.20708 48.7113 9.10068 48.6794 9.00203 48.6086C8.9033 48.5377 8.83863 48.4464 8.80857 48.3607C8.78288 48.2872 8.76968 48.1856 8.82168 48.0372L14.0194 33.2234C14.5054 31.8384 14.0751 30.2976 12.9425 29.364L1.68532 20.0853Z" stroke="#5B57E0" stroke-opacity="0.3" stroke-width="3"/>
</svg>
