<svg width="119" height="120" viewBox="0 0 119 120" fill="none" xmlns="http://www.w3.org/2000/svg">
<path d="M40.2006 2.04016C40.1671 1.56174 40.7623 1.31483 41.0774 1.67644L68.2571 32.9081C69.2452 34.0434 70.8487 34.4201 72.2388 33.8434L111.39 17.6015C111.841 17.4145 112.265 17.9174 112.004 18.33L89.6673 53.7108C88.8424 55.0176 88.9717 56.7105 89.9861 57.8764L117.052 88.9774C117.37 89.3418 117.037 89.8991 116.566 89.7934L75.4703 80.5543C74.0259 80.2296 72.5335 80.8487 71.7432 82.1005L49.2556 117.717C48.9976 118.125 48.3685 117.967 48.3346 117.485L45.437 76.3576C45.3281 74.8161 44.2211 73.5287 42.7134 73.1896L1.89076 64.0106C1.41475 63.9035 1.35815 63.2483 1.80885 63.0613L40.9603 46.8193C42.3504 46.2426 43.2163 44.8415 43.1105 43.3402L40.2006 2.04016Z" stroke="#BA33D5" stroke-opacity="0.2" stroke-width="3"/>
</svg>
