<svg width="121" height="119" viewBox="0 0 121 119" fill="none" xmlns="http://www.w3.org/2000/svg">
<path d="M83.2973 1.65323C83.6358 1.31351 84.2132 1.59966 84.1478 2.07479L78.4818 43.0877C78.2759 44.5785 79.0461 46.0345 80.3946 46.7029L118.372 65.5272C118.809 65.7439 118.709 66.394 118.227 66.4689L76.8815 72.8968C75.3545 73.1343 74.1638 74.3447 73.9521 75.8755L68.31 116.717C68.2439 117.195 67.6057 117.312 67.3756 116.887L47.3207 79.846C46.6159 78.5441 45.1682 77.8265 43.7053 78.054L2.08337 84.5235C1.60621 84.5974 1.31213 84.0191 1.65287 83.6768L30.739 54.4558C31.829 53.3604 32.0713 51.68 31.3356 50.3209L11.4153 13.5252C11.183 13.0962 11.6396 12.6228 12.0767 12.8394L50.054 31.6638C51.4025 32.3322 53.0276 32.0636 54.0893 30.9969L83.2973 1.65323Z" stroke="#BA33D5" stroke-opacity="0.4" stroke-width="3"/>
</svg>
