<svg width="90" height="89" viewBox="0 0 90 89" fill="none" xmlns="http://www.w3.org/2000/svg">
<path d="M44.1067 1.85159C44.2523 1.3828 44.9161 1.38276 45.0618 1.85159L54.1653 31.2432C54.6192 32.7086 55.9749 33.708 57.509 33.708H87.1643C87.6427 33.708 87.8483 34.3153 87.468 34.6055L63.3137 53.0147C62.1453 53.9052 61.6574 55.4307 62.092 56.834L71.2786 86.4942C71.4225 86.9589 70.8853 87.3345 70.4983 87.0401L46.7063 68.9063C45.4531 67.9512 43.7153 67.9512 42.4622 68.9063L18.6702 87.0401C18.2831 87.3345 17.746 86.9589 17.8899 86.4942L27.0764 56.834C27.5111 55.4307 27.0232 53.9052 25.8547 53.0147L1.70044 34.6055C1.32015 34.3154 1.52568 33.708 2.00415 33.708H31.6594C33.1935 33.708 34.5493 32.7086 35.0032 31.2432L44.1067 1.85159Z" stroke="#FFC6D5" stroke-width="3"/>
</svg>
